<svg xmlns="http://www.w3.org/2000/svg" viewBox="0 0 600 200" width="600" height="200">
  <defs>
    <linearGradient id="redGrad" x1="0%" y1="0%" x2="100%" y2="100%">
      <stop offset="0%" style="stop-color:#DC2626"/>
      <stop offset="100%" style="stop-color:#991B1B"/>
    </linearGradient>
  </defs>
  
  <!-- Icon: Abstract calendar/event pin -->
  <g transform="translate(30, 20)">
    <path d="M40 8 L90 8 C96 8 100 12 100 18 L100 85 C100 95 70 130 65 138 C63 141 57 141 55 138 C50 130 20 95 20 85 L20 18 C20 12 24 8 30 8 Z" fill="url(#redGrad)"/>
    <rect x="32" y="35" width="56" height="3" rx="1.5" fill="white" opacity="0.9"/>
    <rect x="32" y="50" width="56" height="3" rx="1.5" fill="white" opacity="0.7"/>
    <rect x="32" y="65" width="40" height="3" rx="1.5" fill="white" opacity="0.5"/>
    <rect x="40" y="2" width="4" height="16" rx="2" fill="#eeeeee"/>
    <rect x="76" y="2" width="4" height="16" rx="2" fill="#eeeeee"/>
    <path d="M45 78 L55 88 L75 62" fill="none" stroke="white" stroke-width="5" stroke-linecap="round" stroke-linejoin="round" opacity="0.9"/>
  </g>
  
  <!-- Text -->
  <g transform="translate(145, 0)">
    <!-- EVENT - WHITE for dark mode -->
    <text x="0" y="72" font-family="'Segoe UI','Helvetica Neue',Arial,sans-serif" font-size="58" font-weight="800" letter-spacing="-1" fill="#FFFFFF">EVENT</text>
    
    <!-- LOGIC -->
    <text x="0" y="128" font-family="'Segoe UI','Helvetica Neue',Arial,sans-serif" font-size="58" font-weight="300" letter-spacing="8" fill="#DC2626">LOGIC</text>
    
    <!-- PRO badge -->
    <rect x="280" y="98" width="70" height="32" rx="4" fill="#FFFFFF"/>
    <text x="315" y="121" font-family="'Segoe UI','Helvetica Neue',Arial,sans-serif" font-size="18" font-weight="700" letter-spacing="3" fill="#1a1a1a" text-anchor="middle">PRO</text>
  </g>
  
  <!-- Tagline -->
  <text x="145" y="165" font-family="'Segoe UI','Helvetica Neue',Arial,sans-serif" font-size="13" font-weight="400" letter-spacing="4" fill="#777777">PROFESSIONAL EVENT MANAGEMENT</text>
</svg>
